<mxfile host="app.diagrams.net" modified="2023-04-10T20:58:03.818Z" agent="Mozilla/5.0 (Windows NT 10.0; Win64; x64) AppleWebKit/537.36 (KHTML, like Gecko) Chrome/111.0.0.0 Safari/537.36" etag="065omMjv9QLqdt99XZ2V" version="21.1.4" type="google">
  <diagram name="Page-1" id="BjND0kLyUrbpowMm9T35">
    <mxGraphModel grid="1" page="1" gridSize="10" guides="1" tooltips="1" connect="1" arrows="1" fold="1" pageScale="1" pageWidth="827" pageHeight="1169" math="0" shadow="0">
      <root>
        <mxCell id="0" />
        <mxCell id="1" parent="0" />
        <mxCell id="CxMNJtJIsDb7R96RyFWQ-29" style="edgeStyle=orthogonalEdgeStyle;rounded=0;orthogonalLoop=1;jettySize=auto;html=1;entryX=0;entryY=0.5;entryDx=0;entryDy=0;" edge="1" parent="1" source="CxMNJtJIsDb7R96RyFWQ-3" target="CxMNJtJIsDb7R96RyFWQ-8">
          <mxGeometry relative="1" as="geometry">
            <mxPoint x="530" y="190" as="targetPoint" />
            <Array as="points">
              <mxPoint x="450" y="210" />
              <mxPoint x="490" y="210" />
              <mxPoint x="490" y="115" />
            </Array>
          </mxGeometry>
        </mxCell>
        <mxCell id="CxMNJtJIsDb7R96RyFWQ-30" style="edgeStyle=orthogonalEdgeStyle;rounded=0;orthogonalLoop=1;jettySize=auto;html=1;entryX=0;entryY=0.5;entryDx=0;entryDy=0;" edge="1" parent="1" source="CxMNJtJIsDb7R96RyFWQ-3" target="CxMNJtJIsDb7R96RyFWQ-9">
          <mxGeometry relative="1" as="geometry" />
        </mxCell>
        <mxCell id="CxMNJtJIsDb7R96RyFWQ-31" style="edgeStyle=orthogonalEdgeStyle;rounded=0;orthogonalLoop=1;jettySize=auto;html=1;entryX=0;entryY=0.5;entryDx=0;entryDy=0;" edge="1" parent="1" source="CxMNJtJIsDb7R96RyFWQ-3" target="CxMNJtJIsDb7R96RyFWQ-10">
          <mxGeometry relative="1" as="geometry">
            <Array as="points">
              <mxPoint x="540" y="270" />
            </Array>
          </mxGeometry>
        </mxCell>
        <mxCell id="CxMNJtJIsDb7R96RyFWQ-40" style="edgeStyle=orthogonalEdgeStyle;rounded=0;orthogonalLoop=1;jettySize=auto;html=1;" edge="1" parent="1" source="CxMNJtJIsDb7R96RyFWQ-3" target="CxMNJtJIsDb7R96RyFWQ-16">
          <mxGeometry relative="1" as="geometry" />
        </mxCell>
        <mxCell id="CxMNJtJIsDb7R96RyFWQ-52" value="Enable" style="edgeLabel;html=1;align=center;verticalAlign=middle;resizable=0;points=[];" connectable="0" vertex="1" parent="CxMNJtJIsDb7R96RyFWQ-40">
          <mxGeometry x="0.1484" y="1" relative="1" as="geometry">
            <mxPoint y="-14" as="offset" />
          </mxGeometry>
        </mxCell>
        <mxCell id="CxMNJtJIsDb7R96RyFWQ-41" style="edgeStyle=orthogonalEdgeStyle;rounded=0;orthogonalLoop=1;jettySize=auto;html=1;exitX=0;exitY=0.75;exitDx=0;exitDy=0;entryX=0.5;entryY=0;entryDx=0;entryDy=0;" edge="1" parent="1" source="CxMNJtJIsDb7R96RyFWQ-3" target="CxMNJtJIsDb7R96RyFWQ-18">
          <mxGeometry relative="1" as="geometry">
            <Array as="points">
              <mxPoint x="350" y="280" />
              <mxPoint x="205" y="280" />
            </Array>
          </mxGeometry>
        </mxCell>
        <mxCell id="CxMNJtJIsDb7R96RyFWQ-51" value="Mesure de tension" style="edgeLabel;html=1;align=center;verticalAlign=middle;resizable=0;points=[];" connectable="0" vertex="1" parent="CxMNJtJIsDb7R96RyFWQ-41">
          <mxGeometry x="-0.4538" y="4" relative="1" as="geometry">
            <mxPoint y="6" as="offset" />
          </mxGeometry>
        </mxCell>
        <mxCell id="CxMNJtJIsDb7R96RyFWQ-3" value="CPU&amp;nbsp;&lt;br&gt;STM32L412KBT6" style="rounded=0;whiteSpace=wrap;html=1;" vertex="1" parent="1">
          <mxGeometry x="350" y="230" width="120" height="60" as="geometry" />
        </mxCell>
        <mxCell id="CxMNJtJIsDb7R96RyFWQ-28" value="" style="edgeStyle=orthogonalEdgeStyle;rounded=0;orthogonalLoop=1;jettySize=auto;html=1;" edge="1" parent="1" source="CxMNJtJIsDb7R96RyFWQ-7" target="CxMNJtJIsDb7R96RyFWQ-3">
          <mxGeometry relative="1" as="geometry" />
        </mxCell>
        <mxCell id="CxMNJtJIsDb7R96RyFWQ-7" value="Encodeur/Decodeur&lt;br&gt;Quartz&lt;br&gt;MCP2120-I/SL" style="rounded=0;whiteSpace=wrap;html=1;" vertex="1" parent="1">
          <mxGeometry x="354" y="90" width="120" height="60" as="geometry" />
        </mxCell>
        <mxCell id="CxMNJtJIsDb7R96RyFWQ-8" value="1 LED bleu&lt;br&gt;niveau de reception WIFI&lt;br&gt;MP008276" style="rounded=0;whiteSpace=wrap;html=1;" vertex="1" parent="1">
          <mxGeometry x="540" y="80" width="120" height="60" as="geometry" />
        </mxCell>
        <mxCell id="CxMNJtJIsDb7R96RyFWQ-9" value="1 LED&lt;br&gt;reception IR&lt;br&gt;5988G10313F" style="rounded=0;whiteSpace=wrap;html=1;" vertex="1" parent="1">
          <mxGeometry x="540" y="170" width="120" height="50" as="geometry" />
        </mxCell>
        <mxCell id="CxMNJtJIsDb7R96RyFWQ-10" value="1 LED RGB&lt;br&gt;niveau de batterie&lt;br&gt;&amp;nbsp;" style="rounded=0;whiteSpace=wrap;html=1;" vertex="1" parent="1">
          <mxGeometry x="540" y="235" width="120" height="50" as="geometry" />
        </mxCell>
        <mxCell id="CxMNJtJIsDb7R96RyFWQ-35" style="edgeStyle=orthogonalEdgeStyle;rounded=0;orthogonalLoop=1;jettySize=auto;html=1;entryX=1;entryY=0.5;entryDx=0;entryDy=0;" edge="1" parent="1" source="CxMNJtJIsDb7R96RyFWQ-11" target="CxMNJtJIsDb7R96RyFWQ-8">
          <mxGeometry relative="1" as="geometry">
            <Array as="points">
              <mxPoint x="680" y="150" />
              <mxPoint x="680" y="115" />
            </Array>
          </mxGeometry>
        </mxCell>
        <mxCell id="CxMNJtJIsDb7R96RyFWQ-36" style="edgeStyle=orthogonalEdgeStyle;rounded=0;orthogonalLoop=1;jettySize=auto;html=1;entryX=1;entryY=0.5;entryDx=0;entryDy=0;" edge="1" parent="1" source="CxMNJtJIsDb7R96RyFWQ-11" target="CxMNJtJIsDb7R96RyFWQ-9">
          <mxGeometry relative="1" as="geometry" />
        </mxCell>
        <mxCell id="CxMNJtJIsDb7R96RyFWQ-37" style="edgeStyle=orthogonalEdgeStyle;rounded=0;orthogonalLoop=1;jettySize=auto;html=1;entryX=1;entryY=0.5;entryDx=0;entryDy=0;" edge="1" parent="1" source="CxMNJtJIsDb7R96RyFWQ-11" target="CxMNJtJIsDb7R96RyFWQ-10">
          <mxGeometry relative="1" as="geometry">
            <Array as="points">
              <mxPoint x="680" y="261" />
            </Array>
          </mxGeometry>
        </mxCell>
        <mxCell id="CxMNJtJIsDb7R96RyFWQ-11" value="Driver&amp;nbsp;&lt;br&gt;de LED&lt;br&gt;&amp;nbsp;PCA9685PW,118" style="rounded=0;whiteSpace=wrap;html=1;rotation=0;" vertex="1" parent="1">
          <mxGeometry x="710" y="90" width="100" height="190" as="geometry" />
        </mxCell>
        <mxCell id="CxMNJtJIsDb7R96RyFWQ-13" value="Routeur&lt;br&gt;24V, 500mA" style="rounded=0;whiteSpace=wrap;html=1;" vertex="1" parent="1">
          <mxGeometry x="450" y="390" width="120" height="40" as="geometry" />
        </mxCell>
        <mxCell id="CxMNJtJIsDb7R96RyFWQ-49" style="edgeStyle=orthogonalEdgeStyle;rounded=0;orthogonalLoop=1;jettySize=auto;html=1;exitX=1;exitY=0.5;exitDx=0;exitDy=0;entryX=1.006;entryY=0.902;entryDx=0;entryDy=0;entryPerimeter=0;fillColor=#f8cecc;strokeColor=#b85450;strokeWidth=2;" edge="1" parent="1" source="CxMNJtJIsDb7R96RyFWQ-14" target="CxMNJtJIsDb7R96RyFWQ-3">
          <mxGeometry relative="1" as="geometry">
            <Array as="points">
              <mxPoint x="570" y="447" />
              <mxPoint x="610" y="447" />
              <mxPoint x="610" y="365" />
              <mxPoint x="540" y="365" />
              <mxPoint x="540" y="289" />
              <mxPoint x="471" y="289" />
            </Array>
          </mxGeometry>
        </mxCell>
        <mxCell id="CxMNJtJIsDb7R96RyFWQ-14" value="LDO&lt;br&gt;3.3V, 100mA" style="rounded=0;whiteSpace=wrap;html=1;" vertex="1" parent="1">
          <mxGeometry x="470" y="440" width="120" height="40" as="geometry" />
        </mxCell>
        <mxCell id="CxMNJtJIsDb7R96RyFWQ-15" value="Camera&lt;br&gt;5V, 700mA" style="rounded=0;whiteSpace=wrap;html=1;" vertex="1" parent="1">
          <mxGeometry x="450" y="490" width="120" height="30" as="geometry" />
        </mxCell>
        <mxCell id="CxMNJtJIsDb7R96RyFWQ-45" style="edgeStyle=orthogonalEdgeStyle;rounded=0;orthogonalLoop=1;jettySize=auto;html=1;exitX=1;exitY=0.5;exitDx=0;exitDy=0;entryX=0;entryY=0.5;entryDx=0;entryDy=0;fillColor=#f8cecc;strokeColor=#b85450;strokeWidth=2;" edge="1" parent="1" source="CxMNJtJIsDb7R96RyFWQ-16" target="CxMNJtJIsDb7R96RyFWQ-13">
          <mxGeometry relative="1" as="geometry" />
        </mxCell>
        <mxCell id="CxMNJtJIsDb7R96RyFWQ-16" value="Boost&lt;br&gt;18V 0.5A" style="rounded=0;whiteSpace=wrap;html=1;" vertex="1" parent="1">
          <mxGeometry x="280" y="375" width="120" height="60" as="geometry" />
        </mxCell>
        <mxCell id="CxMNJtJIsDb7R96RyFWQ-46" style="edgeStyle=orthogonalEdgeStyle;rounded=0;orthogonalLoop=1;jettySize=auto;html=1;exitX=1;exitY=0.25;exitDx=0;exitDy=0;entryX=0;entryY=0.5;entryDx=0;entryDy=0;fillColor=#f8cecc;strokeColor=#b85450;strokeWidth=2;" edge="1" parent="1" source="CxMNJtJIsDb7R96RyFWQ-17" target="CxMNJtJIsDb7R96RyFWQ-14">
          <mxGeometry relative="1" as="geometry" />
        </mxCell>
        <mxCell id="CxMNJtJIsDb7R96RyFWQ-47" style="edgeStyle=orthogonalEdgeStyle;rounded=0;orthogonalLoop=1;jettySize=auto;html=1;exitX=1;exitY=0.75;exitDx=0;exitDy=0;entryX=0;entryY=0.5;entryDx=0;entryDy=0;fillColor=#f8cecc;strokeColor=#b85450;strokeWidth=2;" edge="1" parent="1" source="CxMNJtJIsDb7R96RyFWQ-17" target="CxMNJtJIsDb7R96RyFWQ-15">
          <mxGeometry relative="1" as="geometry" />
        </mxCell>
        <mxCell id="CxMNJtJIsDb7R96RyFWQ-17" value="Buck&lt;br&gt;5V 1A" style="rounded=0;whiteSpace=wrap;html=1;" vertex="1" parent="1">
          <mxGeometry x="280" y="460" width="120" height="60" as="geometry" />
        </mxCell>
        <mxCell id="CxMNJtJIsDb7R96RyFWQ-42" style="edgeStyle=orthogonalEdgeStyle;rounded=0;orthogonalLoop=1;jettySize=auto;html=1;exitX=1;exitY=0.25;exitDx=0;exitDy=0;entryX=0;entryY=0.5;entryDx=0;entryDy=0;fillColor=#f8cecc;strokeColor=#b85450;strokeWidth=2;" edge="1" parent="1" source="CxMNJtJIsDb7R96RyFWQ-18" target="CxMNJtJIsDb7R96RyFWQ-16">
          <mxGeometry relative="1" as="geometry" />
        </mxCell>
        <mxCell id="CxMNJtJIsDb7R96RyFWQ-43" style="edgeStyle=orthogonalEdgeStyle;rounded=0;orthogonalLoop=1;jettySize=auto;html=1;exitX=1;exitY=0.75;exitDx=0;exitDy=0;entryX=0;entryY=0.5;entryDx=0;entryDy=0;fillColor=#f8cecc;strokeColor=#b85450;strokeWidth=2;" edge="1" parent="1" source="CxMNJtJIsDb7R96RyFWQ-18" target="CxMNJtJIsDb7R96RyFWQ-17">
          <mxGeometry relative="1" as="geometry" />
        </mxCell>
        <mxCell id="CxMNJtJIsDb7R96RyFWQ-18" value="Batteries Pack&lt;br&gt;4s&lt;br&gt;12V &amp;gt; 16.8V" style="rounded=0;whiteSpace=wrap;html=1;rotation=0;" vertex="1" parent="1">
          <mxGeometry x="160" y="365" width="90" height="155" as="geometry" />
        </mxCell>
        <mxCell id="CxMNJtJIsDb7R96RyFWQ-19" value="BMS" style="rounded=0;whiteSpace=wrap;html=1;" vertex="1" parent="1">
          <mxGeometry x="30" y="230.5" width="120" height="60" as="geometry" />
        </mxCell>
        <mxCell id="CxMNJtJIsDb7R96RyFWQ-21" value="" style="endArrow=classic;html=1;rounded=0;fillColor=#f8cecc;strokeColor=#b85450;exitX=1;exitY=0.5;exitDx=0;exitDy=0;strokeWidth=2;" edge="1" parent="1" source="CxMNJtJIsDb7R96RyFWQ-14">
          <mxGeometry width="50" height="50" relative="1" as="geometry">
            <mxPoint x="830" y="255" as="sourcePoint" />
            <mxPoint x="770" y="280" as="targetPoint" />
            <Array as="points">
              <mxPoint x="770" y="460" />
              <mxPoint x="770" y="360" />
              <mxPoint x="770" y="280" />
            </Array>
          </mxGeometry>
        </mxCell>
        <mxCell id="CxMNJtJIsDb7R96RyFWQ-22" value="3.3V" style="edgeLabel;html=1;align=center;verticalAlign=middle;resizable=0;points=[];" connectable="0" vertex="1" parent="CxMNJtJIsDb7R96RyFWQ-21">
          <mxGeometry x="-0.5905" y="-1" relative="1" as="geometry">
            <mxPoint x="-26" y="-9" as="offset" />
          </mxGeometry>
        </mxCell>
        <mxCell id="CxMNJtJIsDb7R96RyFWQ-25" style="edgeStyle=orthogonalEdgeStyle;rounded=0;orthogonalLoop=1;jettySize=auto;html=1;" edge="1" parent="1" source="CxMNJtJIsDb7R96RyFWQ-23" target="CxMNJtJIsDb7R96RyFWQ-7">
          <mxGeometry relative="1" as="geometry" />
        </mxCell>
        <mxCell id="CxMNJtJIsDb7R96RyFWQ-23" value="Recepteur IR&lt;br&gt;TSOP75338TT" style="rounded=0;whiteSpace=wrap;html=1;" vertex="1" parent="1">
          <mxGeometry x="180" y="100" width="120" height="30" as="geometry" />
        </mxCell>
        <mxCell id="CxMNJtJIsDb7R96RyFWQ-27" style="edgeStyle=orthogonalEdgeStyle;rounded=0;orthogonalLoop=1;jettySize=auto;html=1;entryX=0;entryY=0.5;entryDx=0;entryDy=0;" edge="1" parent="1" source="CxMNJtJIsDb7R96RyFWQ-24" target="CxMNJtJIsDb7R96RyFWQ-23">
          <mxGeometry relative="1" as="geometry" />
        </mxCell>
        <mxCell id="CxMNJtJIsDb7R96RyFWQ-24" value="Emetteur IR&lt;br&gt;VSML3710-GS18" style="rounded=0;whiteSpace=wrap;html=1;" vertex="1" parent="1">
          <mxGeometry x="20" y="100" width="120" height="30" as="geometry" />
        </mxCell>
        <mxCell id="CxMNJtJIsDb7R96RyFWQ-38" value="" style="endArrow=none;html=1;rounded=0;exitX=0.455;exitY=-0.052;exitDx=0;exitDy=0;exitPerimeter=0;" edge="1" parent="1" source="CxMNJtJIsDb7R96RyFWQ-13" target="CxMNJtJIsDb7R96RyFWQ-3">
          <mxGeometry width="50" height="50" relative="1" as="geometry">
            <mxPoint x="500" y="380" as="sourcePoint" />
            <mxPoint x="440" y="310" as="targetPoint" />
            <Array as="points">
              <mxPoint x="440" y="360" />
              <mxPoint x="440" y="330" />
            </Array>
          </mxGeometry>
        </mxCell>
        <mxCell id="CxMNJtJIsDb7R96RyFWQ-39" value="UART" style="edgeLabel;html=1;align=center;verticalAlign=middle;resizable=0;points=[];" connectable="0" vertex="1" parent="CxMNJtJIsDb7R96RyFWQ-38">
          <mxGeometry x="-0.0713" y="1" relative="1" as="geometry">
            <mxPoint x="17" y="-12" as="offset" />
          </mxGeometry>
        </mxCell>
        <mxCell id="CxMNJtJIsDb7R96RyFWQ-50" value="3.3V" style="edgeLabel;html=1;align=center;verticalAlign=middle;resizable=0;points=[];" connectable="0" vertex="1" parent="1">
          <mxGeometry x="629.9970518310828" y="454.9969450771989" as="geometry">
            <mxPoint x="-59" y="-100" as="offset" />
          </mxGeometry>
        </mxCell>
      </root>
    </mxGraphModel>
  </diagram>
</mxfile>
